<svg xmlns="http://www.w3.org/2000/svg" xmlns:xlink="http://www.w3.org/1999/xlink" width="220" height="44" viewBox="0 0 220 44">
    <defs>
        <path id="a" d="M0 26.32V.33h35.96v25.99z"/>
    </defs>
    <g fill="none" fill-rule="evenodd">
        <path fill="#FEFEFE" d="M82.083 20.095c-1.638 0-2.98.967-3.766 2.315v-1.535s.045-.606-.607-.606h-2.914v13.148h2.998c.633 0 .645-.631.645-.631v-4.63c0-.729.078-1.394.264-1.98.568-1.78 1.961-2.476 3.212-2.483.187 0 .361.013.49.026a.728.728 0 0 0 .106.009c.37 0 .397-.377.397-.377v-3.166l-.2-.032a3.21 3.21 0 0 0-.625-.058M88.421 30.76c-1.179-.019-1.644-.67-1.657-1.386 0-.728.516-1.141 1.329-1.412.806-.264 1.838-.323 2.638-.323h.29v.045c0 .71-.272 1.49-.749 2.084-.47.6-1.115.993-1.85.993m.69-10.789c-3.083 0-5.088 1.6-5.114 1.612l-.16.13 1.012 1.921s.25.413.703.413c.159 0 .341-.05.548-.187.515-.355 1.443-.787 2.715-.787.664 0 1.211.135 1.58.438.353.29.585.736.599 1.47h-.168c-1.045 0-2.934.065-4.598.652-1.658.574-3.147 1.741-3.14 3.889 0 1.334.541 2.398 1.386 3.108.845.715 1.973 1.083 3.154 1.083 1.483 0 2.514-.574 3.16-1.16.167-.155.309-.317.431-.458v.328s0 .994 1 .994h2.398v-8.165c.007-1.65-.496-2.985-1.457-3.894-.947-.916-2.34-1.387-4.049-1.387M158.176 30.76c-1.18-.019-1.65-.67-1.663-1.386 0-.728.515-1.141 1.334-1.412.8-.264 1.837-.323 2.631-.323h.297v.045c.006.71-.277 1.49-.755 2.084-.47.6-1.109.993-1.844.993m.69-10.789c-3.09 0-5.094 1.6-5.12 1.612l-.155.13 1.219 2.314s.104.16.329.16c.1 0 .228-.033.38-.128.536-.322 1.774-.986 3.05-.986.665 0 1.205.135 1.58.438.355.29.587.736.6 1.47h-.168c-1.045 0-2.94.065-4.604.652-1.657.574-3.147 1.741-3.14 3.889 0 1.334.541 2.398 1.386 3.108.845.715 1.974 1.083 3.153 1.083h.013c1.477 0 2.509-.574 3.147-1.16a4.53 4.53 0 0 0 .432-.458v.328s0 .994 1.013.994h2.399v-8.165c0-1.65-.51-2.985-1.464-3.894-.962-.916-2.348-1.387-4.05-1.387M104.25 19.972h-.042c-1.709.006-3.07.954-3.87 2.012v-.903s.007-.812-.773-.812h-2.747v13.148h3.644v-5.803c0-.561.025-1.122.14-1.548.388-1.56 1.374-2.715 2.864-2.715.678.006.975.232 1.187.62.212.386.277.992.27 1.657v7.79h3.65v-5.804c0-.594.026-1.122.142-1.58.36-1.518 1.343-2.683 2.794-2.683h.011c.678.006.981.22 1.206.594.214.38.284.98.278 1.683v6.377s.018 1.412 1.49 1.412h2.166v-8.383c0-1.696-.387-2.966-1.148-3.818-.761-.85-1.865-1.244-3.21-1.244h-.034c-1.888 0-3.456 1.051-4.287 2.315-.622-1.497-1.922-2.315-3.73-2.315M122.45 25.034c.356-1.367 1.31-2.121 2.715-2.134 1.2.02 2.084.703 2.232 2.134h-4.946zm2.813-5.062h-.052c-1.938 0-3.604.709-4.778 1.928-1.187 1.219-1.87 2.94-1.87 4.946 0 1.858.67 3.573 1.902 4.83 1.219 1.258 2.986 2.038 5.146 2.038 3.25-.007 5.23-1.857 5.255-1.883l.136-.123-.986-1.85s-.236-.396-.722-.396c-.181 0-.399.056-.652.209-.635.378-1.65.864-2.79.864h-.022c-1.709-.013-3.205-.955-3.508-2.844h8.673l.02-.232c0-.007.07-.839.07-1.238 0-1.715-.496-3.283-1.489-4.417-.988-1.136-2.463-1.832-4.333-1.832zM138.901 30.56c-1.696-.006-2.888-1.392-2.895-3.714.007-2.418 1.335-3.663 2.92-3.669.975 0 1.671.432 2.161 1.11.485.67.742 1.592.742 2.533-.026 2.71-1.424 3.721-2.928 3.74m5.887-15.25h-3.063v5.854c-.532-.513-1.582-1.192-3.398-1.192h-.049c-1.725 0-3.224.69-4.278 1.883-1.064 1.213-1.676 2.934-1.676 4.991 0 2 .561 3.715 1.586 4.933 1.012 1.226 2.489 1.935 4.269 1.935 1.967-.006 3.134-.941 3.722-1.619v.2s-.04 1.123 1.12 1.123h2.354V15.96c0-.645-.587-.651-.587-.651M150.006 20.269h-2.335V32.72c0 .683.626.697.626.697h3.024V21.642c0-1.302-1.315-1.373-1.315-1.373M150.8 15.31h-2.632a.492.492 0 0 0-.497.496v2.309c0 .277.22.497.497.497h2.631c.278 0 .496-.22.496-.497v-2.309a.492.492 0 0 0-.496-.496M70.521 22.49h-4.636a.654.654 0 0 0-.655.654v1.871c0 .672.545 1.216 1.216 1.216h2.526v2.312a5.593 5.593 0 0 1-3.742 1.43 5.612 5.612 0 1 1 0-11.225c1.438 0 2.536.545 3.208 1.007.48.33 1.13.267 1.543-.145l1.382-1.383a.654.654 0 0 0-.031-.956 9.321 9.321 0 0 0-6.102-2.265c-4.525 0-8.3 3.215-9.166 7.484a9.39 9.39 0 0 0 0 3.741 9.335 9.335 0 0 0 2.552 4.743 9.324 9.324 0 0 0 6.614 2.74c1.33 0 2.596-.278 3.742-.779a9.38 9.38 0 0 0 3.469-2.617c.178-.215.272-.488.272-.767v-6.407a.655.655 0 0 0-.655-.654h-1.537zM167.057 31.409a1.96 1.96 0 0 1 1.959-1.96h.048a1.959 1.959 0 1 1 0 3.918h-.048a1.959 1.959 0 0 1-1.96-1.958M178.928 33.661c-3.942 0-6.832-3.036-6.832-6.782v-.05c0-3.745 2.866-6.83 6.88-6.83 2.474 0 4.017.832 5.24 2.204l-1.494 1.606a1.16 1.16 0 0 1-1.552.135c-.612-.464-1.295-.738-2.218-.738-1.86 0-3.183 1.64-3.183 3.574v.05c0 2.008 1.299 3.623 3.33 3.623.93 0 1.64-.297 2.317-.803.428-.32 1.034-.25 1.41.13l1.464 1.481c-1.274 1.396-2.742 2.4-5.362 2.4"/>
        <path fill="#FEFEFE" d="M194.77 26.83c0-1.934-1.396-3.624-3.454-3.624-2.13 0-3.403 1.64-3.403 3.574v.05c0 1.934 1.396 3.623 3.452 3.623 2.131 0 3.404-1.64 3.404-3.574v-.05zm-3.454 6.831c-4.064 0-7.075-3.011-7.075-6.782v-.05c0-3.77 3.035-6.83 7.124-6.83 4.066 0 7.077 3.01 7.077 6.781v.05c0 3.77-3.037 6.831-7.126 6.831zM207.192 19.972h-.043c-1.708.006-3.07.954-3.87 2.012v-.903s.008-.812-.773-.812h-2.747v13.148h3.644v-5.803c0-.561.025-1.122.141-1.548.387-1.56 1.374-2.715 2.863-2.715.678.006.975.232 1.187.62.213.386.277.992.27 1.657v7.79h3.65v-5.804c0-.594.026-1.122.143-1.58.36-1.518 1.342-2.683 2.793-2.683h.012c.677.006.98.22 1.205.594.214.38.285.98.278 1.683v6.377s.019 1.412 1.49 1.412h2.166v-8.383c0-1.696-.387-2.966-1.147-3.818-.762-.85-1.866-1.244-3.211-1.244h-.034c-1.888 0-3.456 1.051-4.287 2.315-.621-1.497-1.922-2.315-3.73-2.315M30.025 26.698h.008-.008z"/>
        <path stroke="#BBBDBF" stroke-dasharray="2" stroke-width=".5" d="M30.025 26.698h.008-.008z"/>
        <g transform="translate(0 .626)">
            <mask id="b" fill="#fff">
                <use xlink:href="#a"/>
            </mask>
            <path fill="#FEFEFE" d="M11.166 11.552a21.228 21.228 0 0 1 10.286-2.641c3.297 0 5.814 1.249 7.356 2.309.826.568 1.868.629 2.737.227.292-.136.564-.323.802-.56l3.17-3.171a1.499 1.499 0 0 0-.071-2.193 21.468 21.468 0 0 0-5.414-3.406A21.308 21.308 0 0 0 25.639.741a21.542 21.542 0 0 0-4.187-.41C11.074.33 2.417 7.7.429 17.49A21.548 21.548 0 0 0 0 21.783c0 1.47.15 2.904.43 4.29.017.083.038.165.056.248 1.182-6.367 5.193-11.74 10.68-14.768" mask="url(#b)"/>
        </g>
        <path fill="#FEFEFE" d="M24.443 43.156c-.195-.053-.391-.105-.585-.163-.122-.037-.242-.08-.363-.118-.168-.054-.337-.107-.504-.164-.128-.045-.253-.095-.38-.142-.157-.058-.315-.114-.47-.176-.13-.052-.258-.109-.387-.162-.149-.063-.299-.124-.446-.19-.132-.059-.261-.123-.392-.184-.141-.067-.282-.132-.422-.201-.132-.066-.261-.136-.391-.204-.135-.071-.271-.14-.404-.214-.132-.073-.26-.15-.39-.225-.129-.075-.258-.148-.385-.224-.13-.08-.257-.162-.384-.245-.124-.078-.248-.156-.37-.236-.128-.086-.252-.174-.377-.261-.12-.084-.238-.165-.355-.25-.125-.091-.247-.186-.37-.28-.114-.086-.228-.171-.34-.26-.122-.096-.24-.197-.361-.296-.109-.09-.218-.18-.325-.272-.118-.102-.234-.207-.35-.312-.104-.094-.21-.187-.311-.283-.115-.108-.228-.219-.34-.329-.1-.097-.2-.194-.297-.293-.11-.112-.219-.229-.327-.344-.095-.1-.19-.201-.284-.304-.106-.117-.21-.238-.313-.357-.09-.105-.182-.21-.27-.315-.102-.122-.2-.247-.3-.37-.085-.11-.172-.218-.256-.327-.097-.126-.19-.255-.284-.383-.082-.112-.164-.224-.243-.337a20.24 20.24 0 0 1-.269-.395c-.077-.116-.154-.23-.23-.348a24.284 24.284 0 0 1-.903-1.548 23.145 23.145 0 0 1-.403-.805c-.069-.143-.135-.288-.2-.433a22.07 22.07 0 0 1-1.078-2.968 23.834 23.834 0 0 1-.23-.89 20.883 20.883 0 0 1-.346-1.828 24.32 24.32 0 0 1-.114-.932c-.015-.155-.03-.31-.043-.466a23.007 23.007 0 0 1-.053-.945c-.003-.068-.008-.134-.01-.202l.005-.004c-.004-.187-.012-.375-.012-.563a12.847 12.847 0 0 1 4.058-9.376c-.082.044-.166.087-.247.132-5.487 3.026-9.498 8.4-10.68 14.767 0 0-.172.858-.316 2.091a21.45 21.45 0 0 0 4.887 7.554 21.383 21.383 0 0 0 15.169 6.283c1.433 0 2.832-.142 4.187-.41a21.922 21.922 0 0 1-.898-.21c-.1-.026-.199-.056-.298-.083"/>
        <path fill="#606060" d="M25.639 43.448s6.13-1.02 4.386-.729a7.42 7.42 0 0 1-1.86.062c-.472.156-.95.298-1.435.421-.36.091-.724.174-1.091.246M8.596 23.076l-.002-.105-.006.005c.001.034.006.066.008.1"/>
        <path fill="#606060" d="M8.6 23.212l-.004-.136c-.002-.034-.007-.067-.008-.101.002.08.008.157.011.237"/>
        <path fill="#FEFEFE" d="M37.111 18.117H22.953c-.829 0-1.501.673-1.501 1.502v4.29a2.789 2.789 0 0 0 2.788 2.79h5.792c4.54.003 8.253 3.533 8.552 7.998.017-.127.029-.256.029-.386V19.62c0-.83-.672-1.502-1.502-1.502"/>
        <path fill="#FEFEFE" d="M37.485 36.521l.032-.57c-.275-4.109-3.444-7.412-7.485-7.918v3.965a12.82 12.82 0 0 1-8.58 3.28h-.007a12.829 12.829 0 0 1-9.095-3.77c-.098-.098-.192-.201-.287-.303 2.903 5.723 8.287 9.975 14.74 11.33 0 0 .546.174 1.362.246.636-.209 1.26-.443 1.867-.709a21.483 21.483 0 0 0 7.434-5.413c.02-.092.028-.149.019-.138"/>
    </g>
</svg>
